
<svg xmlns="http://www.w3.org/2000/svg"
     width="17.625in" height="9.16667in"
     viewBox="0 0 1269 660">
    

    <style type="text/css">
    <![CDATA[
    
    path { 

        stroke-dasharray: 3000;
        stroke-dashoffset:3000;   

        /*fill: blue;
        #leftLeaf {fill: green;} */
        fill-opacity: 0;
        animation-timing-function: ease-in-out;
        animation-fill-mode: forwards;
        animation-iteration: 1;
          
        animation-name: FillIn, dash;
        animation-duration: 2s, 4s;
        animation-delay: 3s,0s;
         
     } 

     @keyframes FillIn {
        
        from { fill-opacity: 0; }
        to { fill-opacity: 1; }
    }  

     @keyframes dash{
        to{
            stroke-dashoffset: 0;
        }
     }     
    
    ]]>
</style>-3
    <pattern
           id="p-fire"   
           viewBox="0 0 400 700"         
           patternUnits="userSpaceOnUse"
           width="440" height="700"         
    >
    <image href="fireBig.gif" x="-100" y="-55" width="471" height="700"/>
  </pattern>


  <path id="leftLeaf"
        fill= "green" stroke="green" stroke-width="3"
        d="M 619.00,659.00
           C 619.00,659.00 590.00,659.00 590.00,659.00
             590.00,659.00 575.00,658.00 575.00,658.00
             575.00,658.00 560.00,657.00 560.00,657.00
             560.00,657.00 551.00,657.00 551.00,657.00
             551.00,657.00 521.00,654.17 521.00,654.17
             444.52,646.76 369.01,632.67 296.00,608.33
             242.56,590.52 185.94,565.91 139.00,534.67
             67.41,487.03 1.94,417.30 3.00,326.00
             3.00,326.00 3.91,316.00 3.91,316.00
             10.03,232.22 77.19,163.81 145.00,121.58
             237.50,63.97 343.79,31.22 451.00,14.58
             486.79,9.02 522.85,4.53 559.00,2.96
             559.00,2.96 572.00,2.00 572.00,2.00
             572.00,2.00 591.00,1.00 591.00,1.00
             591.00,1.00 618.00,1.00 618.00,1.00
             618.00,1.00 634.00,0.00 634.00,0.00
             634.00,0.00 634.00,9.00 634.00,9.00
             634.00,9.00 617.00,10.00 617.00,10.00
             617.00,10.00 602.00,10.00 602.00,10.00
             602.00,10.00 591.00,10.96 591.00,10.96
             563.82,12.14 536.79,15.74 510.00,20.58
             435.04,34.10 356.63,62.44 294.00,106.28
             237.54,145.80 186.74,200.30 167.43,268.00
             159.06,297.34 158.65,314.07 159.00,344.00
             159.14,355.61 162.77,373.56 165.63,385.00
             179.06,438.71 213.19,485.72 254.00,522.16
             324.64,585.25 417.52,622.74 510.00,639.42
             536.79,644.26 563.82,647.86 591.00,649.04
             591.00,649.04 602.00,650.00 602.00,650.00
             602.00,650.00 617.00,650.00 617.00,650.00
             617.00,650.00 630.00,651.00 630.00,651.00
             630.00,651.00 634.00,651.00 634.00,651.00
             634.00,651.00 634.00,660.00 634.00,660.00
             634.00,660.00 619.00,659.00 619.00,659.00 Z" />

    <path id="rightLeaf"
        fill="red" stroke="red" stroke-width="3"
        d="M 670.00,1.00
           C 670.00,1.00 682.00,1.96 682.00,1.96
             682.00,1.96 694.00,1.96 694.00,1.96
             694.00,1.96 711.00,3.00 711.00,3.00
             711.00,3.00 721.00,3.91 721.00,3.91
             721.00,3.91 765.00,7.84 765.00,7.84
             829.79,14.77 892.61,27.49 955.00,46.28
             1010.38,62.96 1077.97,91.37 1126.00,123.33
             1181.95,160.57 1238.46,211.03 1257.57,278.00
             1264.41,301.97 1265.28,315.41 1265.00,340.00
             1264.80,356.57 1258.86,379.45 1253.05,395.00
             1231.27,453.24 1182.68,498.88 1132.00,532.67
             1076.17,569.89 1010.31,597.62 946.00,616.42
             893.87,631.67 842.83,642.20 789.00,649.28
             768.76,651.95 727.26,656.90 708.00,657.00
             708.00,657.00 697.00,657.96 697.00,657.96
             697.00,657.96 685.00,657.96 685.00,657.96
             685.00,657.96 670.00,659.00 670.00,659.00
             670.00,659.00 635.00,659.00 635.00,659.00
             635.00,659.00 635.00,651.00 635.00,651.00
             635.00,651.00 652.00,650.00 652.00,650.00
             652.00,650.00 667.00,650.00 667.00,650.00
             667.00,650.00 678.00,649.04 678.00,649.04
             706.51,647.80 734.94,643.86 763.00,638.61
             854.54,621.47 949.09,582.96 1018.00,519.09
             1060.51,479.68 1094.34,430.64 1105.80,373.00
             1107.49,364.52 1109.90,348.40 1110.00,340.00
             1110.26,317.79 1109.29,300.80 1104.12,279.00
             1088.08,211.47 1041.52,155.96 987.00,115.13
             919.85,64.84 836.22,34.05 754.00,19.75
             728.87,15.38 703.47,12.07 678.00,10.96
             678.00,10.96 667.00,10.00 667.00,10.00
             667.00,10.00 652.00,10.00 652.00,10.00
             652.00,10.00 639.00,9.00 639.00,9.00
             639.00,9.00 635.00,9.00 635.00,9.00
             635.00,9.00 635.00,1.00 635.00,1.00
             635.00,1.00 670.00,1.00 670.00,1.00 Z" />

     <path id="flames"
        fill="url(#p-fire)" stroke="#cc5200" stroke-width="3"
        d="M 632.17,30.00
           C 632.17,30.00 630.91,52.00 630.91,52.00
             630.91,52.00 629.96,64.00 629.96,64.00
             629.96,64.00 629.96,76.00 629.96,76.00
             629.96,76.00 629.00,88.00 629.00,88.00
             629.00,88.00 629.00,121.00 629.00,121.00
             629.00,121.00 629.96,133.00 629.96,133.00
             629.96,133.00 629.96,145.00 629.96,145.00
             629.96,145.00 630.91,155.00 630.91,155.00
             630.91,155.00 633.84,191.00 633.84,191.00
             639.15,240.71 649.49,287.90 666.31,335.00
             674.20,357.10 686.61,384.66 699.75,404.00
             704.91,411.61 712.34,422.61 721.00,426.00
             722.08,417.96 722.99,417.93 723.00,409.00
             723.00,409.00 723.00,395.00 723.00,395.00
             722.96,371.14 713.19,325.23 705.98,302.00
             705.98,302.00 697.00,277.00 697.00,277.00
             710.03,285.27 728.19,303.98 738.25,316.00
             750.85,331.07 761.83,347.89 769.57,366.00
             803.18,444.60 770.65,528.24 717.15,589.00
             694.77,614.43 667.65,639.10 635.00,650.00
             635.00,650.00 632.92,636.00 632.92,636.00
             631.12,625.78 627.01,613.44 622.69,604.00
             609.47,575.12 589.83,549.91 570.42,525.00
             546.15,493.84 523.13,464.74 503.86,430.00
             482.58,391.64 467.51,346.13 467.00,302.00
             467.00,302.00 466.01,289.00 466.01,289.00
             466.01,289.00 467.00,270.00 467.00,270.00
             467.00,270.00 468.85,251.00 468.85,251.00
             472.40,221.27 478.90,196.31 488.33,168.00
             495.20,147.39 503.64,127.72 512.69,108.00
             516.26,100.22 523.74,82.78 529.00,77.00
             529.00,77.00 521.28,125.00 521.28,125.00
             515.70,167.37 512.84,227.00 519.59,269.00
             522.54,287.36 526.37,304.24 534.75,321.00
             538.00,327.49 541.55,334.11 547.00,339.00
             544.59,330.50 546.99,321.64 547.00,313.00
             547.03,294.83 549.47,269.26 551.72,251.00
             558.48,196.06 567.52,142.12 586.95,90.00
             597.23,62.42 612.30,32.16 633.00,11.00
             634.46,14.99 632.61,25.33 632.17,30.00 Z" />

     <path id="letters"
        fill="black" stroke="black" stroke-width="1"
        d="M 251.00,308.00
           C 251.00,308.00 251.00,330.00 251.00,330.00
             251.00,330.00 251.00,342.00 251.00,342.00
             250.99,351.49 249.74,363.88 239.00,367.20
             225.13,371.48 219.13,357.09 219.00,346.00
             219.00,346.00 219.00,306.00 219.00,306.00
             219.04,296.87 220.57,288.27 230.00,284.57
             247.00,281.49 250.93,293.72 251.00,308.00 Z
           M 364.13,358.00
           C 362.45,353.49 362.01,346.82 362.00,342.00
             362.00,342.00 362.00,309.00 362.00,309.00
             362.03,302.84 362.72,294.06 366.64,289.10
             372.56,281.60 384.83,282.51 390.35,290.04
             395.10,296.52 394.00,307.27 394.00,315.00
             394.00,315.00 381.00,315.00 381.00,315.00
             381.00,315.00 380.00,297.00 380.00,297.00
             376.01,299.25 376.09,300.58 376.00,305.00
             376.00,305.00 376.00,346.00 376.00,346.00
             376.16,354.48 379.74,353.33 380.84,349.92
             380.84,349.92 380.84,335.00 380.84,335.00
             380.84,335.00 378.00,335.00 378.00,335.00
             378.00,335.00 378.00,323.00 378.00,323.00
             378.00,323.00 394.00,323.00 394.00,323.00
             394.00,323.00 394.00,366.00 394.00,366.00
             387.74,365.98 387.04,366.66 384.00,361.00
             377.97,371.95 367.89,368.11 364.13,358.00 Z
           M 883.13,287.23
           C 885.89,284.64 888.33,284.04 892.00,284.03
             903.13,284.01 907.34,293.19 907.91,303.00
             908.76,317.65 897.52,339.20 892.00,353.00
             892.00,353.00 907.00,353.00 907.00,353.00
             907.00,353.00 907.00,366.00 907.00,366.00
             907.00,366.00 877.00,366.00 877.00,366.00
             877.00,366.00 877.00,360.00 877.00,360.00
             877.11,352.33 880.27,346.94 883.14,340.00
             883.14,340.00 894.25,310.00 894.25,310.00
             894.94,307.36 895.77,302.68 894.88,300.08
             894.17,297.99 892.49,296.53 890.58,298.46
             888.35,300.70 889.00,308.79 889.00,312.00
             889.00,312.00 877.00,312.00 877.00,312.00
             877.01,304.38 877.25,292.73 883.13,287.23 Z
           M 944.00,329.00
           C 944.00,329.00 944.00,340.00 944.00,340.00
             943.99,349.15 943.34,363.45 932.99,366.77
             924.05,369.64 916.36,364.76 913.79,356.00
             911.71,348.94 912.00,339.37 912.00,332.00
             912.00,332.00 912.72,303.00 912.72,303.00
             913.78,294.37 913.80,288.55 923.00,284.65
             948.44,279.40 944.00,313.46 944.00,329.00 Z
           M 209.66,288.00
           C 213.00,290.51 213.60,294.16 214.25,298.00
             215.33,304.46 215.87,322.38 212.83,327.96
             209.02,334.94 202.64,331.56 199.60,334.60
             197.68,336.52 198.01,340.46 198.00,343.00
             198.00,343.00 198.00,366.00 198.00,366.00
             198.00,366.00 185.00,366.00 185.00,366.00
             185.00,366.00 185.00,285.00 185.00,285.00
             191.67,285.00 204.33,283.99 209.66,288.00 Z
           M 282.78,288.43
           C 285.03,290.40 286.12,293.13 286.68,296.00
             287.75,301.61 288.98,316.16 285.26,320.69
             283.91,322.34 282.86,322.42 281.00,323.00
             282.87,325.22 285.16,327.29 286.28,330.01
             288.84,336.25 288.00,358.13 288.00,366.00
             288.00,366.00 275.00,366.00 275.00,366.00
             275.00,366.00 275.00,340.00 275.00,340.00
             274.97,334.20 275.25,332.19 270.00,329.00
             270.00,329.00 270.00,366.00 270.00,366.00
             270.00,366.00 257.00,366.00 257.00,366.00
             257.00,366.00 257.00,285.00 257.00,285.00
             263.33,285.00 278.04,284.28 282.78,288.43 Z
           M 321.00,285.00
           C 321.00,285.00 321.00,301.00 321.00,301.00
             321.00,301.00 313.00,301.00 313.00,301.00
             313.00,301.00 313.00,366.00 313.00,366.00
             313.00,366.00 299.00,366.00 299.00,366.00
             299.00,366.00 299.00,301.00 299.00,301.00
             299.00,301.00 291.00,301.00 291.00,301.00
             291.00,301.00 291.00,285.00 291.00,285.00
             291.00,285.00 321.00,285.00 321.00,285.00 Z
           M 339.00,285.00
           C 339.00,285.00 339.00,329.00 339.00,329.00
             339.00,329.00 340.00,354.00 340.00,354.00
             340.00,354.00 342.00,354.00 342.00,354.00
             342.00,354.00 343.00,329.00 343.00,329.00
             343.00,329.00 343.00,285.00 343.00,285.00
             343.00,285.00 357.00,285.00 357.00,285.00
             357.00,285.00 357.00,340.00 357.00,340.00
             356.98,351.19 356.04,367.82 341.00,367.82
             328.06,367.81 325.02,355.39 325.00,345.00
             325.00,345.00 325.00,285.00 325.00,285.00
             325.00,285.00 339.00,285.00 339.00,285.00 Z
           M 424.00,285.00
           C 424.00,285.00 428.17,326.00 428.17,326.00
             428.17,326.00 432.00,366.00 432.00,366.00
             432.00,366.00 418.00,366.00 418.00,366.00
             418.00,359.35 420.11,352.36 412.00,351.00
             412.00,351.00 411.00,366.00 411.00,366.00
             411.00,366.00 397.00,366.00 397.00,366.00
             397.00,366.00 404.00,285.00 404.00,285.00
             404.00,285.00 424.00,285.00 424.00,285.00 Z
           M 449.00,285.00
           C 449.00,285.00 449.00,350.00 449.00,350.00
             449.00,350.00 457.00,350.00 457.00,350.00
             457.00,350.00 457.00,366.00 457.00,366.00
             457.00,366.00 435.00,366.00 435.00,366.00
             435.00,366.00 435.00,285.00 435.00,285.00
             435.00,285.00 449.00,285.00 449.00,285.00 Z
           M 947.57,299.39
           C 948.51,297.37 952.16,295.37 954.00,293.79
             960.96,287.82 959.52,285.12 969.00,285.00
             969.00,285.00 969.00,366.00 969.00,366.00
             969.00,366.00 956.00,366.00 956.00,366.00
             956.00,366.00 956.00,318.00 956.00,318.00
             955.95,310.72 954.74,307.90 947.00,307.00
             947.00,305.09 946.82,301.02 947.57,299.39 Z
           M 998.00,285.00
           C 998.00,285.00 998.00,302.00 998.00,302.00
             998.00,302.00 990.00,366.00 990.00,366.00
             990.00,366.00 977.00,366.00 977.00,366.00
             977.00,366.00 986.00,299.00 986.00,299.00
             986.00,299.00 973.00,299.00 973.00,299.00
             973.00,299.00 973.00,285.00 973.00,285.00
             973.00,285.00 998.00,285.00 998.00,285.00 Z
           M 926.00,296.00
           C 926.00,296.00 925.00,345.00 925.00,345.00
             925.03,350.14 924.52,352.84 929.00,356.00
             931.90,349.04 931.00,341.43 931.00,334.00
             931.00,323.18 931.80,306.04 930.00,296.00
             930.00,296.00 926.00,296.00 926.00,296.00 Z
           M 234.00,297.00
           C 231.21,304.66 232.00,310.99 232.00,319.00
             232.00,319.00 233.00,354.00 233.00,354.00
             237.55,352.41 236.97,350.46 237.00,346.00
             237.00,346.00 237.00,315.00 237.00,315.00
             237.00,309.08 237.62,302.71 236.00,297.00
             236.00,297.00 234.00,297.00 234.00,297.00 Z
           M 201.98,318.40
           C 203.23,316.81 203.00,312.99 203.00,311.00
             203.01,305.22 204.69,300.18 198.00,299.00
             198.00,299.00 198.00,320.00 198.00,320.00
             199.53,319.73 200.89,319.79 201.98,318.40 Z
           M 273.90,315.43
           C 275.48,313.31 275.45,303.54 273.90,301.31
             272.85,299.61 271.73,299.55 270.00,299.00
             270.00,299.00 270.00,317.00 270.00,317.00
             271.54,316.73 272.73,316.82 273.90,315.43 Z
           M 412.00,338.00
           C 412.00,338.00 417.00,338.00 417.00,338.00
             417.00,338.00 415.00,306.00 415.00,306.00
             415.00,306.00 412.00,338.00 412.00,338.00 Z" />            

</svg>
